<?xml version="1.0"?>

<svg xmlns="http://www.w3.org/2000/svg" style="display:none" aria-hidden="true">
<defs>

  <symbol id="brand-mark" viewBox="0 0 80 80">
    <title>В рамках закона</title>
    <path d="M22 12 H12 V68 H22" fill="none" stroke="var(--accent, #8a2a2a)" stroke-width="4" stroke-linejoin="miter"></path>
    <path d="M58 12 H68 V68 H58" fill="none" stroke="var(--accent, #8a2a2a)" stroke-width="4" stroke-linejoin="miter"></path>
    <text x="40" y="56" font-family="Lora, Georgia, serif" font-weight="600" font-size="50" fill="var(--ink, #1a1814)" text-anchor="middle">§</text>
  </symbol>

  <symbol id="brand-mark-on-dark" viewBox="0 0 80 80">
    <title>В рамках закона на тёмном</title>
    <path d="M22 12 H12 V68 H22" fill="none" stroke="var(--accent-soft, #b65555)" stroke-width="4" stroke-linejoin="miter"></path>
    <path d="M58 12 H68 V68 H58" fill="none" stroke="var(--accent-soft, #b65555)" stroke-width="4" stroke-linejoin="miter"></path>
    <text x="40" y="56" font-family="Lora, Georgia, serif" font-weight="600" font-size="50" fill="var(--on-dark, #f4ede0)" text-anchor="middle">§</text>
  </symbol>

  <symbol id="brand-mark-mono" viewBox="0 0 80 80">
    <title>В рамках закона монохром</title>
    <path d="M22 12 H12 V68 H22" fill="none" stroke="currentColor" stroke-width="4" stroke-linejoin="miter"></path>
    <path d="M58 12 H68 V68 H58" fill="none" stroke="currentColor" stroke-width="4" stroke-linejoin="miter"></path>
    <text x="40" y="56" font-family="Lora, Georgia, serif" font-weight="600" font-size="50" fill="currentColor" text-anchor="middle">§</text>
  </symbol>

  <symbol id="brand-mark-filled" viewBox="0 0 80 80">
    <title>В рамках закона силуэт</title>
    <rect x="10" y="10" width="60" height="60" fill="currentColor"></rect>
  </symbol>

  <symbol id="icon-step-case" viewBox="0 0 16 16">
    <title>Дело</title>
    <g fill="none" stroke="currentColor" stroke-width="1.5" stroke-linecap="round" stroke-linejoin="round">
      <path d="M2 5h4l1.5-1.5h6.5v9.5H2z"></path>
      <path d="M2 7.5h12"></path>
    </g>
  </symbol>

  <symbol id="icon-step-defendants" viewBox="0 0 16 16">
    <title>Подсудимые</title>
    <g fill="none" stroke="currentColor" stroke-width="1.5" stroke-linecap="round" stroke-linejoin="round">
      <rect x="2.5" y="2.5" width="11" height="4.5"></rect>
      <rect x="2.5" y="9" width="11" height="4.5"></rect>
      <line x1="4.5" y1="4.75" x2="5.5" y2="4.75"></line>
      <line x1="7" y1="4.75" x2="11.5" y2="4.75"></line>
      <line x1="4.5" y1="11.25" x2="5.5" y2="11.25"></line>
      <line x1="7" y1="11.25" x2="11.5" y2="11.25"></line>
    </g>
  </symbol>

  <symbol id="icon-step-prior" viewBox="0 0 16 16">
    <title>Прошлые судимости</title>
    <g fill="none" stroke="currentColor" stroke-width="1.5" stroke-linecap="round" stroke-linejoin="round">
      <path d="M3 2.5h6L11 4.5v6h-8z"></path>
      <path d="M5 5.5h4M5 7.5h4"></path>
      <circle cx="11.5" cy="11.5" r="2.5"></circle>
      <path d="M11.5 10.2v1.3l1 .6"></path>
    </g>
  </symbol>

  <symbol id="icon-step-episodes" viewBox="0 0 16 16">
    <title>Эпизоды</title>
    <g fill="none" stroke="currentColor" stroke-width="1.5" stroke-linecap="round" stroke-linejoin="round">
      <path d="M4 3h9v8"></path>
      <path d="M3 5h9v8H3z"></path>
      <path d="M5.5 8h5M5.5 10.5h3"></path>
    </g>
  </symbol>

  <symbol id="icon-step-aggregate" viewBox="0 0 16 16">
    <title>Совокупность</title>
    <g fill="none" stroke="currentColor" stroke-width="1.5" stroke-linecap="round" stroke-linejoin="round">
      <rect x="2" y="2" width="8" height="8"></rect>
      <rect x="6" y="6" width="8" height="8"></rect>
    </g>
  </symbol>

  <symbol id="icon-step-report" viewBox="0 0 16 16">
    <title>Отчёт</title>
    <g fill="none" stroke="currentColor" stroke-width="1.5" stroke-linecap="round" stroke-linejoin="round">
      <path d="M3.5 2h6L12.5 5v9h-9z"></path>
      <path d="M9.5 2v3h3"></path>
      <path d="M5.5 8h5M5.5 10.5h5M5.5 12h3"></path>
    </g>
  </symbol>

  <symbol id="icon-step-handoff" viewBox="0 0 16 16">
    <title>Передача</title>
    <g fill="none" stroke="currentColor" stroke-width="1.5" stroke-linecap="round" stroke-linejoin="round">
      <path d="M2.5 3h6v10h-6z"></path>
      <path d="M4.5 5.5h2M4.5 7.5h2"></path>
      <path d="M9 8h5"></path>
      <path d="m12 6 2 2-2 2"></path>
    </g>
  </symbol>

  <symbol id="icon-pun-fine" viewBox="0 0 16 16">
    <title>Штраф</title>
    <g fill="none" stroke="currentColor" stroke-width="1.5" stroke-linecap="round" stroke-linejoin="round">
      <rect x="2.5" y="2.5" width="11" height="11"></rect>
      <path d="M6.5 5v6"></path>
      <path d="M6.5 5h2a1.6 1.6 0 0 1 0 3.2H6.5"></path>
      <path d="M5 9.7h4"></path>
    </g>
  </symbol>

  <symbol id="icon-pun-disqualify" viewBox="0 0 16 16">
    <title>Лишение права занимать должности</title>
    <g fill="none" stroke="currentColor" stroke-width="1.5" stroke-linecap="round" stroke-linejoin="round">
      <rect x="2.5" y="2.5" width="10" height="10"></rect>
      <line x1="4.5" y1="5.5" x2="9.5" y2="5.5"></line>
      <line x1="4.5" y1="7.5" x2="9.5" y2="7.5"></line>
      <circle cx="10.5" cy="10.5" r="1.7"></circle>
      <path d="M1.5 14.5 14.5 1.5" stroke-width="2"></path>
    </g>
  </symbol>

  <symbol id="icon-pun-mandatory" viewBox="0 0 16 16">
    <title>Обязательные работы</title>
    <g fill="none" stroke="currentColor" stroke-width="1.5" stroke-linecap="round" stroke-linejoin="round">
      <rect x="2" y="3.5" width="12" height="10"></rect>
      <line x1="2" y1="6.5" x2="14" y2="6.5"></line>
      <line x1="5" y1="2.5" x2="5" y2="4.5"></line>
      <line x1="11" y1="2.5" x2="11" y2="4.5"></line>
      <rect x="4.5" y="8.5" width="2" height="1.5" fill="currentColor" stroke="none"></rect>
      <rect x="7.5" y="8.5" width="2" height="1.5" fill="currentColor" stroke="none"></rect>
      <rect x="4.5" y="11" width="2" height="1.5" fill="currentColor" stroke="none"></rect>
    </g>
  </symbol>

  <symbol id="icon-pun-corrective" viewBox="0 0 16 16">
    <title>Исправительные работы</title>
    <g fill="none" stroke="currentColor" stroke-width="1.5" stroke-linecap="round" stroke-linejoin="round">
      <rect x="2" y="3.5" width="12" height="9"></rect>
      <path d="M5 6v4 M5 6h1.5a1 1 0 0 1 0 2L5 8 M4 9h3"></path>
      <line x1="9.5" y1="8" x2="12.5" y2="8" stroke-width="2.2"></line>
    </g>
  </symbol>

  <symbol id="icon-pun-restriction" viewBox="0 0 16 16">
    <title>Ограничение свободы</title>
    <g fill="none" stroke="currentColor" stroke-width="1.5" stroke-linecap="round" stroke-linejoin="round">
      <path d="M4 3.5H2.5v9H4"></path>
      <path d="M12 3.5h1.5v9H12"></path>
      <path d="M5.5 12V8l2.5-2 2.5 2v4z"></path>
    </g>
  </symbol>

  <symbol id="icon-pun-forced" viewBox="0 0 16 16">
    <title>Принудительные работы</title>
    <g fill="none" stroke="currentColor" stroke-width="1.5" stroke-linecap="round" stroke-linejoin="round">
      <path d="M2 2.5 L13.5 2.5 L13.5 5.5 L3 5.5 Z"></path>
      <line x1="5.5" y1="2.5" x2="5.5" y2="5.5"></line>
      <rect x="7" y="5.5" width="2.5" height="8"></rect>
    </g>
  </symbol>

  <symbol id="icon-pun-arrest" viewBox="0 0 16 16">
    <title>Арест</title>
    <g fill="none" stroke="currentColor" stroke-width="1.5" stroke-linecap="round" stroke-linejoin="round">
      <rect x="2.5" y="4.5" width="11" height="7"></rect>
      <path d="M5.5 4.5v7M10.5 4.5v7"></path>
      <path d="M8 7v1.5l1.2.7"></path>
    </g>
  </symbol>

  <symbol id="icon-pun-prison" viewBox="0 0 16 16">
    <title>Лишение свободы</title>
    <g fill="none" stroke="currentColor" stroke-width="1.5" stroke-linecap="round" stroke-linejoin="round">
      <path d="M3 13.5V4.5L8 2l5 2.5v9z"></path>
      <path d="M5.5 13.5V7H10.5v6.5"></path>
      <circle cx="9.5" cy="10.5" r="0.6" fill="currentColor" stroke="none"></circle>
    </g>
  </symbol>

  <symbol id="icon-pun-life" viewBox="0 0 16 16">
    <title>Пожизненное лишение свободы</title>
    <g fill="none" stroke="currentColor" stroke-width="1.5" stroke-linecap="round" stroke-linejoin="round">
      <path d="M5.2 5.8c-1.8 0-2.7 1.2-2.7 2.2s.9 2.2 2.7 2.2c1.5 0 2.3-1 3-2.2.7-1.2 1.5-2.2 3-2.2 1.8 0 2.7 1.2 2.7 2.2s-.9 2.2-2.7 2.2c-1.5 0-2.3-1-3-2.2"></path>
    </g>
  </symbol>

  <symbol id="icon-pun-death" viewBox="0 0 16 16">
    <title>Смертная казнь</title>
    <g fill="none" stroke="currentColor" stroke-width="1.5" stroke-linecap="round" stroke-linejoin="round">
      <rect x="2" y="2" width="12" height="12"></rect>
      <line x1="4.5" y1="4.5" x2="11.5" y2="11.5" stroke-width="2.2"></line>
      <line x1="11.5" y1="4.5" x2="4.5" y2="11.5" stroke-width="2.2"></line>
    </g>
  </symbol>

  <symbol id="icon-add" viewBox="0 0 16 16">
    <title>Добавить</title>
    <g fill="none" stroke="currentColor" stroke-width="1.5" stroke-linecap="round" stroke-linejoin="round">
      <circle cx="8" cy="8" r="6"></circle>
      <path d="M8 5v6M5 8h6"></path>
    </g>
  </symbol>

  <symbol id="icon-close" viewBox="0 0 16 16">
    <title>Закрыть</title>
    <g fill="none" stroke="currentColor" stroke-width="1.5" stroke-linecap="round" stroke-linejoin="round">
      <path d="m4 4 8 8M12 4l-8 8"></path>
    </g>
  </symbol>

  <symbol id="icon-edit" viewBox="0 0 16 16">
    <title>Редактировать</title>
    <g fill="none" stroke="currentColor" stroke-width="1.5" stroke-linecap="round" stroke-linejoin="round">
      <path d="M3 13l.5-2 7.5-7.5 1.5 1.5L5 12.5z"></path>
      <path d="M10 3.5l2 2"></path>
    </g>
  </symbol>

  <symbol id="icon-forward" viewBox="0 0 16 16">
    <title>Передать или далее</title>
    <g fill="none" stroke="currentColor" stroke-width="1.5" stroke-linecap="round" stroke-linejoin="round">
      <path d="M2.5 8h11"></path>
      <path d="m10 4.5 3.5 3.5L10 11.5"></path>
    </g>
  </symbol>

  <symbol id="icon-download" viewBox="0 0 16 16">
    <title>Скачать</title>
    <g fill="none" stroke="currentColor" stroke-width="1.5" stroke-linecap="round" stroke-linejoin="round">
      <path d="M8 2v8"></path>
      <path d="m4.5 7 3.5 3.5L11.5 7"></path>
      <path d="M2.5 13.5h11"></path>
    </g>
  </symbol>

  <symbol id="icon-upload" viewBox="0 0 16 16">
    <title>Загрузить</title>
    <g fill="none" stroke="currentColor" stroke-width="1.5" stroke-linecap="round" stroke-linejoin="round">
      <path d="M8 13V5"></path>
      <path d="m4.5 8 3.5-3.5L11.5 8"></path>
      <path d="M2.5 2.5h11"></path>
    </g>
  </symbol>

  <symbol id="icon-retry" viewBox="0 0 16 16">
    <title>Повторить</title>
    <g fill="none" stroke="currentColor" stroke-width="1.5" stroke-linecap="round" stroke-linejoin="round">
      <path d="M13.5 8a5.5 5.5 0 1 1-1.6-3.9"></path>
      <path d="M13.5 3v3h-3"></path>
    </g>
  </symbol>

  <symbol id="icon-external" viewBox="0 0 16 16">
    <title>Внешняя ссылка</title>
    <g fill="none" stroke="currentColor" stroke-width="1.5" stroke-linecap="round" stroke-linejoin="round">
      <path d="M11 8.5V13H3V5h4.5"></path>
      <path d="M9 3h4v4"></path>
      <path d="m13 3-5.5 5.5"></path>
    </g>
  </symbol>

  <symbol id="icon-check" viewBox="0 0 16 16">
    <title>Выполнено</title>
    <g fill="none" stroke="currentColor" stroke-width="1.5" stroke-linecap="round" stroke-linejoin="round">
      <path d="m3 8.5 3.5 3.5L13 5"></path>
    </g>
  </symbol>

  <symbol id="icon-search" viewBox="0 0 16 16">
    <title>Поиск</title>
    <g fill="none" stroke="currentColor" stroke-width="1.5" stroke-linecap="round" stroke-linejoin="round">
      <circle cx="7" cy="7" r="4"></circle>
      <path d="m13 13-3-3"></path>
    </g>
  </symbol>

  <symbol id="icon-calculate" viewBox="0 0 16 16">
    <title>Рассчитать</title>
    <g fill="none" stroke="currentColor" stroke-width="1.5" stroke-linecap="round" stroke-linejoin="round">
      <rect x="3" y="2" width="10" height="12"></rect>
      <path d="M5 4.5h6"></path>
      <path d="M5.5 8h.01M8 8h.01M10.5 8h.01M5.5 11h.01M8 11h.01M10.5 11h.01"></path>
    </g>
  </symbol>

  <symbol id="icon-norm-article" viewBox="0 0 16 16">
    <title>Статья</title>
    <g fill="none" stroke="currentColor" stroke-width="1.5" stroke-linecap="round" stroke-linejoin="round">
      <path d="M3 2.5h7L13 5v8.5H3z"></path>
      <path d="M10 2.5v3h3"></path>
      <path d="M5 8h5M5 10.5h5"></path>
    </g>
  </symbol>

  <symbol id="icon-norm-part" viewBox="0 0 16 16">
    <title>Часть</title>
    <g fill="none" stroke="currentColor" stroke-width="1.5" stroke-linecap="round" stroke-linejoin="round">
      <path d="M3 8h10"></path>
      <circle cx="5" cy="5" r="1.2"></circle>
      <circle cx="11" cy="11" r="1.2"></circle>
    </g>
  </symbol>

  <symbol id="icon-norm-point" viewBox="0 0 16 16">
    <title>Пункт</title>
    <g fill="none" stroke="currentColor" stroke-width="1.5" stroke-linecap="round" stroke-linejoin="round">
      <rect x="2.5" y="2.5" width="11" height="11"></rect>
      <circle cx="8" cy="8" r="1.5" fill="currentColor" stroke="none"></circle>
    </g>
  </symbol>

  <symbol id="icon-norm-rule" viewBox="0 0 16 16">
    <title>Правило назначения</title>
    <g fill="none" stroke="currentColor" stroke-width="1.5" stroke-linecap="round" stroke-linejoin="round">
      <rect x="2" y="6" width="12" height="4"></rect>
      <path d="M5 6v2M7 6v2.5M9 6v2M11 6v2.5"></path>
    </g>
  </symbol>

  <symbol id="icon-norm-aggrav" viewBox="0 0 16 16">
    <title>Отягчающее обстоятельство</title>
    <g fill="none" stroke="currentColor" stroke-width="1.5" stroke-linecap="round" stroke-linejoin="round">
      <path d="M8 13V3"></path>
      <path d="m4.5 6.5 3.5-3.5 3.5 3.5"></path>
      <path d="M3 13h10"></path>
    </g>
  </symbol>

  <symbol id="icon-norm-mitig" viewBox="0 0 16 16">
    <title>Смягчающее обстоятельство</title>
    <g fill="none" stroke="currentColor" stroke-width="1.5" stroke-linecap="round" stroke-linejoin="round">
      <path d="M8 3v10"></path>
      <path d="m4.5 9.5 3.5 3.5 3.5-3.5"></path>
      <path d="M3 3h10"></path>
    </g>
  </symbol>

  <symbol id="icon-norm-recid" viewBox="0 0 16 16">
    <title>Рецидив</title>
    <g fill="none" stroke="currentColor" stroke-width="1.5" stroke-linecap="round" stroke-linejoin="round">
      <path d="M2.5 8a5.5 5.5 0 1 0 1.7-3.95"></path>
      <path d="M2.5 2.5v3h3"></path>
      <circle cx="8" cy="8" r="1" fill="currentColor" stroke="none"></circle>
    </g>
  </symbol>

  <symbol id="icon-ai" viewBox="0 0 16 16">
    <title>AI ассистент</title>
    <g fill="none" stroke="currentColor" stroke-width="1.5" stroke-linecap="round" stroke-linejoin="round">
      <path d="M6 1.5 L7.2 4.8 L10.5 6 L7.2 7.2 L6 10.5 L4.8 7.2 L1.5 6 L4.8 4.8 Z"></path>
      <path d="M12 9 L12.7 11 L14.5 11.5 L12.7 12 L12 14 L11.3 12 L9.5 11.5 L11.3 11 Z"></path>
    </g>
  </symbol>

  <symbol id="icon-norm-category" viewBox="0 0 16 16">
    <title>Изменение категории</title>
    <g fill="none" stroke="currentColor" stroke-width="1.5" stroke-linecap="round" stroke-linejoin="round">
      <rect x="1.5" y="5" width="4" height="6"></rect>
      <rect x="10.5" y="5" width="4" height="6"></rect>
      <path d="M6 8h4"></path>
      <path d="m8.7 6.7 1.3 1.3-1.3 1.3"></path>
    </g>
  </symbol>

  <symbol id="icon-bell" viewBox="0 0 16 16">
    <title>Уведомления</title>
    <g fill="none" stroke="currentColor" stroke-width="1.5" stroke-linecap="round" stroke-linejoin="round">
      <path d="M4 6.5a4 4 0 0 1 8 0c0 3 1 4.5 1 4.5H3s1-1.5 1-4.5Z"></path>
      <path d="M6.5 13a1.5 1.5 0 0 0 3 0"></path>
    </g>
  </symbol>

  <symbol id="icon-feedback" viewBox="0 0 16 16">
    <title>Обратная связь</title>
    <g fill="none" stroke="currentColor" stroke-width="1.5" stroke-linecap="round" stroke-linejoin="round">
      <path d="M2.5 3.5h11v8h-7l-3 2.5V11.5h-1Z"></path>
      <path d="M5 6.5h6M5 9h4"></path>
    </g>
  </symbol>

</defs>
</svg>